# Blender v2.83.5 OBJ File: 'Lowpoly Wooden Signs.blend'
# www.blender.org
mtllib rock_2.mtl
o rock_2
v -0.059443 0.000000 0.031815
v -0.054897 0.626666 0.274538
v -0.045757 0.000000 0.002277
v 0.133209 0.000000 0.121074
v 0.146895 0.000000 0.091536
v 0.040808 0.000000 0.067975
v 0.027122 0.000000 0.097513
v -0.033315 0.307179 0.094412
v -0.041661 0.481692 0.166775
v -0.037369 0.481692 0.157512
v -0.026079 0.307179 0.078792
v 0.023046 0.481692 0.185504
v 0.075801 0.307179 0.125994
v 0.018755 0.481692 0.194767
v 0.068563 0.307179 0.141614
v -0.021214 0.481692 0.201840
v 0.007863 0.307179 0.139082
v -0.016922 0.481692 0.192577
v 0.015100 0.307179 0.123462
v 0.149244 0.000000 0.145492
v 0.342869 0.555776 0.051338
v 0.120373 0.000000 0.145492
v 0.149244 0.000000 -0.042815
v 0.120373 0.000000 -0.042815
v 0.140966 0.000000 0.051339
v 0.169837 0.000000 0.051339
v 0.189874 0.272430 0.101129
v 0.251217 0.427202 0.080865
v 0.242163 0.427202 0.080865
v 0.174608 0.272430 0.101129
v 0.242163 0.427202 0.021812
v 0.174608 0.272430 0.001548
v 0.251217 0.427202 0.021812
v 0.189874 0.272430 0.001548
v 0.271811 0.427202 0.051339
v 0.210468 0.272430 0.051339
v 0.262757 0.427202 0.051339
v 0.195201 0.272430 0.051339
v 0.138095 0.000000 -0.005535
v 0.076375 0.364324 -0.132461
v 0.138095 0.000000 0.013391
v 0.014656 0.000000 -0.005535
v 0.014656 0.000000 0.013391
v 0.076375 0.000000 -0.000109
v 0.076375 0.000000 -0.019034
v 0.109014 0.178584 -0.032170
v 0.095730 0.280041 -0.072381
v 0.095730 0.280041 -0.066446
v 0.109014 0.178584 -0.022161
v 0.057020 0.280041 -0.066446
v 0.043736 0.178584 -0.022161
v 0.057020 0.280041 -0.072381
v 0.043736 0.178584 -0.032170
v 0.076375 0.280041 -0.085880
v 0.076375 0.178584 -0.045669
v 0.076375 0.280041 -0.079945
v 0.076375 0.178584 -0.035661
v 0.200168 0.000000 -0.168937
v -0.097465 0.938282 -0.377590
v 0.223824 0.000000 -0.126321
v -0.077783 0.000000 -0.014639
v -0.054126 0.000000 0.027977
v 0.067975 0.000000 -0.079569
v 0.044317 0.000000 -0.122184
v 0.101392 0.459926 -0.192559
v 0.021217 0.721219 -0.266500
v 0.028636 0.721219 -0.253135
v 0.113902 0.459926 -0.170023
v -0.058529 0.721219 -0.204748
v -0.033084 0.459926 -0.088427
v -0.065947 0.721219 -0.218112
v -0.045595 0.459926 -0.110963
v -0.039238 0.721219 -0.272703
v 0.011024 0.459926 -0.182158
v -0.031821 0.721219 -0.259338
v 0.023536 0.459926 -0.159622
v 0.090448 0.000000 0.180930
v 0.210547 0.378768 0.265230
v 0.080908 0.000000 0.163721
v 0.202689 0.000000 0.118708
v 0.193148 0.000000 0.101499
v 0.143833 0.000000 0.144885
v 0.153373 0.000000 0.162094
v 0.130316 0.185664 0.190489
v 0.162664 0.291143 0.220357
v 0.159672 0.291143 0.214960
v 0.125271 0.185664 0.181389
v 0.194870 0.291143 0.195447
v 0.184626 0.185664 0.148485
v 0.197862 0.291143 0.200844
v 0.189671 0.185664 0.157585
v 0.187067 0.291143 0.222875
v 0.166798 0.185664 0.186312
v 0.184076 0.291143 0.217478
v 0.161753 0.185664 0.177211
v 0.201204 0.000000 -0.064618
v 0.177857 0.233484 -0.152002
v 0.198896 0.000000 -0.052710
v 0.123542 0.000000 -0.079676
v 0.121234 0.000000 -0.067768
v 0.161711 0.000000 -0.068732
v 0.164020 0.000000 -0.080640
v 0.186158 0.114449 -0.084922
v 0.182705 0.179469 -0.111842
v 0.181981 0.179469 -0.108108
v 0.184936 0.114449 -0.078625
v 0.157627 0.179469 -0.112830
v 0.143867 0.114449 -0.086589
v 0.158351 0.179469 -0.116564
v 0.145088 0.114449 -0.092885
v 0.172174 0.179469 -0.122696
v 0.167269 0.114449 -0.097397
v 0.171451 0.179469 -0.118962
v 0.166048 0.114449 -0.091100
v -0.246912 0.125886 0.183449
v -0.333463 0.000000 -0.081911
v -0.278919 0.163296 0.008671
v -0.031234 0.000000 0.220318
v -0.315337 0.088491 0.197863
v -0.031234 0.000000 -0.081911
v -0.165406 0.160968 0.002898
v -0.119326 0.131175 0.187115
v -0.247123 0.180400 0.146200
v -0.340581 0.088491 -0.057300
v -0.079082 0.097886 -0.039949
v -0.091362 0.043278 0.225652
v -0.306610 0.143700 -0.001645
v -0.295272 0.160499 0.127007
v -0.333463 0.000000 0.278332
vt 0.625000 0.125000
vt 0.625000 0.125000
vt 0.625000 0.125000
vt 0.625000 0.125000
vt 0.625000 0.125000
vt 0.625000 0.125000
vt 0.625000 0.125000
vt 0.625000 0.125000
vt 0.625000 0.125000
vt 0.625000 0.125000
vt 0.625000 0.125000
vt 0.625000 0.125000
vt 0.625000 0.125000
vt 0.625000 0.125000
vt 0.625000 0.125000
vt 0.625000 0.125000
vt 0.625000 0.125000
vt 0.625000 0.125000
vt 0.625000 0.125000
vt 0.625000 0.125000
vt 0.625000 0.125000
vt 0.625000 0.125000
vt 0.625000 0.125000
vt 0.625000 0.125000
vt 0.625000 0.125000
vt 0.625000 0.125000
vt 0.625000 0.125000
vt 0.625000 0.125000
vt 0.625000 0.125000
vt 0.625000 0.125000
vt 0.625000 0.125000
vt 0.625000 0.125000
vt 0.625000 0.125000
vt 0.625000 0.125000
vt 0.625000 0.125000
vt 0.625000 0.125000
vt 0.625000 0.125000
vt 0.625000 0.125000
vt 0.625000 0.125000
vt 0.625000 0.125000
vt 0.625000 0.125000
vt 0.625000 0.125000
vt 0.625000 0.125000
vt 0.625000 0.125000
vt 0.625000 0.125000
vt 0.625000 0.125000
vt 0.625000 0.125000
vt 0.625000 0.125000
vt 0.625000 0.125000
vt 0.625000 0.125000
vt 0.625000 0.125000
vt 0.625000 0.125000
vt 0.625000 0.125000
vt 0.625000 0.125000
vt 0.625000 0.125000
vt 0.625000 0.125000
vt 0.625000 0.125000
vt 0.625000 0.125000
vt 0.625000 0.125000
vt 0.625000 0.125000
vt 0.625000 0.125000
vt 0.625000 0.125000
vt 0.625000 0.125000
vt 0.625000 0.125000
vt 0.625000 0.125000
vt 0.625000 0.125000
vt 0.625000 0.125000
vt 0.625000 0.125000
vt 0.625000 0.125000
vt 0.625000 0.125000
vt 0.625000 0.125000
vt 0.625000 0.125000
vt 0.625000 0.125000
vt 0.625000 0.125000
vt 0.625000 0.125000
vt 0.625000 0.125000
vt 0.625000 0.125000
vt 0.625000 0.125000
vt 0.625000 0.125000
vt 0.625000 0.125000
vt 0.625000 0.125000
vt 0.625000 0.125000
vt 0.625000 0.125000
vt 0.625000 0.125000
vt 0.625000 0.125000
vt 0.625000 0.125000
vt 0.625000 0.125000
vt 0.625000 0.125000
vt 0.625000 0.125000
vt 0.625000 0.125000
vt 0.625000 0.125000
vt 0.625000 0.125000
vt 0.625000 0.125000
vt 0.625000 0.125000
vt 0.625000 0.125000
vt 0.625000 0.125000
vt 0.625000 0.125000
vt 0.625000 0.125000
vt 0.625000 0.125000
vt 0.625000 0.125000
vt 0.625000 0.125000
vt 0.625000 0.125000
vt 0.625000 0.125000
vt 0.625000 0.125000
vt 0.625000 0.125000
vt 0.625000 0.125000
vt 0.625000 0.125000
vt 0.625000 0.125000
vt 0.625000 0.125000
vt 0.625000 0.125000
vt 0.625000 0.125000
vt 0.625000 0.125000
vt 0.625000 0.125000
vt 0.625000 0.125000
vt 0.125000 0.125000
vt 0.125000 0.125000
vt 0.125000 0.125000
vt 0.125000 0.125000
vt 0.125000 0.125000
vt 0.125000 0.125000
vt 0.125000 0.125000
vt 0.125000 0.125000
vt 0.125000 0.125000
vt 0.125000 0.125000
vt 0.125000 0.125000
vt 0.125000 0.125000
vt 0.125000 0.125000
vt 0.125000 0.125000
vt 0.125000 0.125000
vn -0.8843 0.2238 -0.4097
vn -0.1552 0.4551 -0.8768
vn 0.8844 0.2239 0.4096
vn -0.7868 -0.4129 0.4588
vn 0.1587 -0.4129 0.8969
vn 0.7692 0.4551 -0.4486
vn 0.6446 0.1666 -0.7461
vn 0.7451 0.3364 -0.5759
vn -0.1535 -0.1201 0.9808
vn 0.0429 -0.3061 0.9510
vn -0.6490 -0.1201 0.7512
vn -0.7532 -0.3061 0.5822
vn 0.8955 0.1607 0.4149
vn 0.8997 0.1298 0.4168
vn 0.1524 0.1666 -0.9742
vn -0.0424 0.3364 -0.9408
vn -0.8956 0.1607 -0.4149
vn -0.8997 0.1298 -0.4168
vn 0.0000 0.2238 0.9746
vn -0.7304 0.4551 0.5094
vn 0.0000 0.2238 -0.9746
vn 0.7470 -0.4129 0.5210
vn 0.7470 -0.4129 -0.5210
vn -0.7304 0.4551 -0.5094
vn -0.9480 0.1666 -0.2712
vn -0.8358 0.3364 -0.4340
vn 0.9545 -0.1201 -0.2731
vn 0.8449 -0.3061 -0.4387
vn 0.9545 -0.1201 0.2731
vn 0.8449 -0.3061 0.4387
vn 0.0000 0.1607 -0.9870
vn 0.0000 0.1298 -0.9915
vn -0.9480 0.1666 0.2712
vn -0.8358 0.3364 0.4340
vn 0.0000 0.1607 0.9870
vn 0.0000 0.1298 0.9915
vn 0.9746 0.2238 0.0000
vn 0.5094 0.4551 0.7304
vn -0.9746 0.2238 0.0000
vn 0.5210 -0.4129 -0.7470
vn -0.5210 -0.4129 -0.7470
vn -0.5094 0.4551 0.7304
vn -0.2712 0.1666 0.9480
vn -0.4340 0.3364 0.8358
vn -0.2731 -0.1201 -0.9545
vn -0.4387 -0.3061 -0.8449
vn 0.2731 -0.1201 -0.9545
vn 0.4387 -0.3061 -0.8449
vn -0.9870 0.1607 0.0000
vn -0.9915 0.1298 0.0000
vn 0.2712 0.1666 0.9480
vn 0.4340 0.3364 0.8358
vn 0.9870 0.1607 0.0000
vn 0.9915 0.1298 0.0000
vn 0.8521 0.2238 -0.4731
vn 0.7999 0.4551 0.3913
vn -0.8522 0.2238 0.4730
vn 0.0930 -0.4129 -0.9060
vn -0.8181 -0.4129 -0.4003
vn -0.0909 0.4551 0.8858
vn 0.2230 0.1666 0.9605
vn 0.0262 0.3364 0.9414
vn -0.7020 -0.1201 -0.7019
vn -0.7936 -0.3061 -0.5258
vn -0.2245 -0.1201 -0.9670
vn -0.0265 -0.3061 -0.9516
vn -0.8629 0.1607 0.4790
vn -0.8669 0.1298 0.4812
vn 0.6973 0.1666 0.6972
vn 0.7851 0.3364 0.5201
vn 0.8630 0.1607 -0.4790
vn 0.8669 0.1298 -0.4812
vn -0.8524 0.2238 0.4726
vn -0.7996 0.4551 -0.3918
vn 0.8524 0.2238 -0.4726
vn -0.0935 -0.4129 0.9060
vn 0.8179 -0.4129 0.4008
vn 0.0914 0.4551 -0.8857
vn -0.2224 0.1666 -0.9606
vn -0.0257 0.3364 -0.9414
vn 0.7016 -0.1201 0.7024
vn 0.7933 -0.3061 0.5262
vn 0.2239 -0.1201 0.9672
vn 0.0259 -0.3061 0.9516
vn 0.8632 0.1607 -0.4785
vn 0.8672 0.1298 -0.4807
vn -0.6969 0.1666 -0.6976
vn -0.7848 0.3364 -0.5205
vn -0.8632 0.1607 0.4785
vn -0.8672 0.1298 0.4808
vn 0.9568 0.2238 0.1856
vn 0.3611 0.4551 0.8140
vn -0.9568 0.2239 -0.1854
vn 0.6537 -0.4129 -0.6342
vn -0.3693 -0.4129 -0.8326
vn -0.6391 0.4551 0.6200
vn -0.4467 0.1666 0.8790
vn -0.5851 0.3364 0.7379
vn -0.0864 -0.1201 -0.9890
vn -0.2699 -0.3061 -0.9129
vn 0.4498 -0.1201 -0.8850
vn 0.5915 -0.3061 -0.7459
vn -0.9690 0.1607 -0.1879
vn -0.9734 0.1298 -0.1887
vn 0.0858 0.1666 0.9823
vn 0.2670 0.3364 0.9031
vn 0.9689 0.1607 0.1879
vn 0.9734 0.1298 0.1888
vn -0.7950 0.5234 0.3068
vn 0.0322 0.5914 -0.8058
vn 0.6377 0.7482 0.1833
vn -0.0308 0.4081 0.9124
vn 0.0000 -1.0000 0.0000
vn 0.3400 0.9381 0.0667
vn -0.4900 0.4905 0.7206
vn 0.0139 0.9919 -0.1266
vn -0.0471 0.5634 0.8248
vn 0.1867 0.1395 0.9725
vn 0.8039 0.5901 0.0741
vn 0.0232 0.3424 -0.9393
vn -0.9964 0.0749 0.0409
vn -0.5622 0.8250 -0.0582
vn -0.0426 0.3898 0.9199
vn 0.9552 0.2143 -0.2043
vn 0.0425 0.6674 0.7435
vn -0.8854 0.4565 0.0876
vn -0.0609 0.6880 -0.7232
vn -0.3718 0.9279 -0.0294
usemtl Herbs.001
s off
f 9/1/1 2/2/1 10/3/1
f 18/4/2 2/2/2 12/5/2
f 12/5/3 2/2/3 14/6/3
f 16/7/4 2/2/4 9/1/4
f 14/6/5 2/2/5 16/7/5
f 10/3/6 2/2/6 18/4/6
f 3/8/7 11/9/7 19/10/7 6/11/7
f 11/9/8 10/3/8 18/4/8 19/10/8
f 4/12/9 15/13/9 17/14/9 7/15/9
f 15/13/10 14/6/10 16/7/10 17/14/10
f 7/15/11 17/14/11 8/16/11 1/17/11
f 17/14/12 16/7/12 9/1/12 8/16/12
f 5/18/13 13/19/13 15/13/13 4/12/13
f 13/19/14 12/5/14 14/6/14 15/13/14
f 6/11/15 19/10/15 13/19/15 5/18/15
f 19/10/16 18/4/16 12/5/16 13/19/16
f 1/17/17 8/16/17 11/9/17 3/8/17
f 8/16/18 9/1/18 10/3/18 11/9/18
f 28/20/19 21/21/19 29/22/19
f 37/23/20 21/21/20 31/24/20
f 31/24/21 21/21/21 33/25/21
f 35/26/22 21/21/22 28/20/22
f 33/25/23 21/21/23 35/26/23
f 29/22/24 21/21/24 37/23/24
f 22/27/25 30/28/25 38/29/25 25/30/25
f 30/28/26 29/22/26 37/23/26 38/29/26
f 23/31/27 34/32/27 36/33/27 26/34/27
f 34/32/28 33/25/28 35/26/28 36/33/28
f 26/34/29 36/33/29 27/35/29 20/36/29
f 36/33/30 35/26/30 28/20/30 27/35/30
f 24/37/31 32/38/31 34/32/31 23/31/31
f 32/38/32 31/24/32 33/25/32 34/32/32
f 25/30/33 38/29/33 32/38/33 24/37/33
f 38/29/34 37/23/34 31/24/34 32/38/34
f 20/36/35 27/35/35 30/28/35 22/27/35
f 27/35/36 28/20/36 29/22/36 30/28/36
f 47/39/37 40/40/37 48/41/37
f 56/42/38 40/40/38 50/43/38
f 50/43/39 40/40/39 52/44/39
f 54/45/40 40/40/40 47/39/40
f 52/44/41 40/40/41 54/45/41
f 48/41/42 40/40/42 56/42/42
f 41/46/43 49/47/43 57/48/43 44/49/43
f 49/47/44 48/41/44 56/42/44 57/48/44
f 42/50/45 53/51/45 55/52/45 45/53/45
f 53/51/46 52/44/46 54/45/46 55/52/46
f 45/53/47 55/52/47 46/54/47 39/55/47
f 55/52/48 54/45/48 47/39/48 46/54/48
f 43/56/49 51/57/49 53/51/49 42/50/49
f 51/57/50 50/43/50 52/44/50 53/51/50
f 44/49/51 57/48/51 51/57/51 43/56/51
f 57/48/52 56/42/52 50/43/52 51/57/52
f 39/55/53 46/54/53 49/47/53 41/46/53
f 46/54/54 47/39/54 48/41/54 49/47/54
f 66/58/55 59/59/55 67/60/55
f 75/61/56 59/59/56 69/62/56
f 69/62/57 59/59/57 71/63/57
f 73/64/58 59/59/58 66/58/58
f 71/63/59 59/59/59 73/64/59
f 67/60/60 59/59/60 75/61/60
f 60/65/61 68/66/61 76/67/61 63/68/61
f 68/66/62 67/60/62 75/61/62 76/67/62
f 61/69/63 72/70/63 74/71/63 64/72/63
f 72/70/64 71/63/64 73/64/64 74/71/64
f 64/72/65 74/71/65 65/73/65 58/74/65
f 74/71/66 73/64/66 66/58/66 65/73/66
f 62/75/67 70/76/67 72/70/67 61/69/67
f 70/76/68 69/62/68 71/63/68 72/70/68
f 63/68/69 76/67/69 70/76/69 62/75/69
f 76/67/70 75/61/70 69/62/70 70/76/70
f 58/74/71 65/73/71 68/66/71 60/65/71
f 65/73/72 66/58/72 67/60/72 68/66/72
f 85/77/73 78/78/73 86/79/73
f 94/80/74 78/78/74 88/81/74
f 88/81/75 78/78/75 90/82/75
f 92/83/76 78/78/76 85/77/76
f 90/82/77 78/78/77 92/83/77
f 86/79/78 78/78/78 94/80/78
f 79/84/79 87/85/79 95/86/79 82/87/79
f 87/85/80 86/79/80 94/80/80 95/86/80
f 80/88/81 91/89/81 93/90/81 83/91/81
f 91/89/82 90/82/82 92/83/82 93/90/82
f 83/91/83 93/90/83 84/92/83 77/93/83
f 93/90/84 92/83/84 85/77/84 84/92/84
f 81/94/85 89/95/85 91/89/85 80/88/85
f 89/95/86 88/81/86 90/82/86 91/89/86
f 82/87/87 95/86/87 89/95/87 81/94/87
f 95/86/88 94/80/88 88/81/88 89/95/88
f 77/93/89 84/92/89 87/85/89 79/84/89
f 84/92/90 85/77/90 86/79/90 87/85/90
f 104/96/91 97/97/91 105/98/91
f 113/99/92 97/97/92 107/100/92
f 107/100/93 97/97/93 109/101/93
f 111/102/94 97/97/94 104/96/94
f 109/101/95 97/97/95 111/102/95
f 105/98/96 97/97/96 113/99/96
f 98/103/97 106/104/97 114/105/97 101/106/97
f 106/104/98 105/98/98 113/99/98 114/105/98
f 99/107/99 110/108/99 112/109/99 102/110/99
f 110/108/100 109/101/100 111/102/100 112/109/100
f 102/110/101 112/109/101 103/111/101 96/112/101
f 112/109/102 111/102/102 104/96/102 103/111/102
f 100/113/103 108/114/103 110/108/103 99/107/103
f 108/114/104 107/100/104 109/101/104 110/108/104
f 101/106/105 114/105/105 108/114/105 100/113/105
f 114/105/106 113/99/106 107/100/106 108/114/106
f 96/112/107 103/111/107 106/104/107 98/103/107
f 103/111/108 104/96/108 105/98/108 106/104/108
usemtl Rocks.001
f 119/115/109 115/116/109 128/117/109 127/118/109
f 124/119/110 121/120/110 125/121/110
f 125/121/111 121/120/111 126/122/111
f 126/122/112 115/116/112 119/115/112
f 116/123/113 120/124/113 118/125/113 129/126/113
f 121/120/114 123/127/114 122/128/114
f 115/116/115 123/127/115 128/117/115
f 117/129/116 123/127/116 121/120/116
f 122/128/117 123/127/117 115/116/117
f 118/125/118 126/122/118 129/126/118
f 120/124/119 125/121/119 126/122/119 118/125/119
f 116/123/120 124/119/120 125/121/120 120/124/120
f 129/126/121 119/115/121 124/119/121 116/123/121
f 127/118/122 128/117/122 117/129/122
f 115/116/123 126/122/123 122/128/123
f 126/122/124 121/120/124 122/128/124
f 129/126/125 126/122/125 119/115/125
f 127/118/126 124/119/126 119/115/126
f 121/120/127 124/119/127 127/118/127 117/129/127
f 128/117/128 123/127/128 117/129/128
