# Blender v2.83.5 OBJ File: 'Lowpoly Wooden Signs.blend'
# www.blender.org
mtllib Sign1.mtl
o Sign1
v 0.125925 0.000000 -0.002371
v -0.033669 0.000000 -0.002371
v -0.033669 0.000000 -0.032778
v 0.125925 0.000000 -0.032777
v 0.125925 1.639633 -0.002370
v -0.033669 1.639633 -0.002373
v -0.033669 1.639633 -0.032779
v 0.125925 1.639633 -0.032778
v -0.492175 1.294304 0.029179
v 0.246026 1.422238 0.029179
v -0.492175 1.294304 -0.001403
v -0.636024 1.422183 -0.001403
v 0.238267 1.294304 0.029179
v 0.238267 1.294304 -0.001403
v -0.492175 1.550063 0.029179
v -0.492175 1.550063 -0.001403
v -0.636024 1.422183 0.029179
v 0.246026 1.422238 -0.001403
v 0.238267 1.542167 0.029179
v 0.230263 1.550170 0.029179
v 0.230263 1.550170 -0.001403
v 0.238267 1.542167 -0.001403
v 0.080888 -0.000739 0.104165
v 0.150027 0.179530 0.114000
v 0.073127 -0.000739 0.098925
v 0.115067 -0.000739 0.053546
v 0.107306 -0.000739 0.048305
v 0.095752 -0.000739 0.077353
v 0.103513 -0.000739 0.082593
v 0.099862 0.087625 0.099615
v 0.120030 0.137826 0.105302
v 0.117596 0.137826 0.103658
v 0.095758 0.087625 0.096843
v 0.128315 0.137826 0.087784
v 0.113833 0.087625 0.070075
v 0.130749 0.137826 0.089427
v 0.117937 0.087625 0.072846
v 0.130925 0.137826 0.101102
v 0.114435 0.087625 0.089968
v 0.128491 0.137826 0.099459
v 0.110331 0.087625 0.087197
v 0.049753 -0.000739 -0.120011
v -0.014079 0.328922 -0.230621
v 0.050965 -0.000739 -0.102928
v -0.061662 -0.000739 -0.112109
v -0.060450 -0.000739 -0.095026
v -0.005607 -0.000739 -0.111161
v -0.006818 -0.000739 -0.128244
v 0.021800 0.160854 -0.142189
v 0.007236 0.252658 -0.177633
v 0.007616 0.252658 -0.172276
v 0.022441 0.160854 -0.133155
v -0.027323 0.252658 -0.169798
v -0.036478 0.160854 -0.128977
v -0.027703 0.252658 -0.175155
v -0.037119 0.160854 -0.138010
v -0.011098 0.252658 -0.188578
v -0.008523 0.160854 -0.152284
v -0.010718 0.252658 -0.183221
v -0.007883 0.160854 -0.143251
v 0.111694 -0.000739 -0.043571
v 0.194708 0.328922 -0.140619
v 0.095992 -0.000739 -0.036736
v 0.067112 -0.000739 -0.145983
v 0.051410 -0.000739 -0.139148
v 0.084901 -0.000739 -0.092817
v 0.100603 -0.000739 -0.099653
v 0.123289 0.160854 -0.077318
v 0.151853 0.252658 -0.102861
v 0.146929 0.252658 -0.100718
v 0.114985 0.160854 -0.073703
v 0.132948 0.252658 -0.132834
v 0.091409 0.160854 -0.127861
v 0.137872 0.252658 -0.134977
v 0.099713 0.160854 -0.131475
v 0.156062 0.252658 -0.123795
v 0.122700 0.160854 -0.109272
v 0.151138 0.252658 -0.121652
v 0.114397 0.160854 -0.105658
v -0.094695 -0.001671 -0.036468
v -0.154784 0.235774 0.033178
v -0.083365 -0.001671 -0.041343
v -0.062898 -0.001671 0.037432
v -0.051568 -0.001671 0.032557
v -0.075548 -0.001671 -0.000916
v -0.086878 -0.001671 0.003960
v -0.103150 0.114720 -0.012197
v -0.123801 0.180844 0.006114
v -0.120248 0.180844 0.004585
v -0.097158 0.114720 -0.014775
v -0.110277 0.180844 0.027760
v -0.080343 0.114720 0.024305
v -0.113830 0.180844 0.029289
v -0.086335 0.114720 0.026883
v -0.126897 0.180844 0.021178
v -0.102824 0.114720 0.010820
v -0.123344 0.180844 0.019650
v -0.096832 0.114720 0.008242
v -0.024006 -0.000739 0.067275
v -0.021446 0.172437 0.134313
v -0.020383 -0.000739 0.059040
v 0.029703 -0.000739 0.090902
v 0.033325 -0.000739 0.082667
v 0.003887 -0.000739 0.076727
v 0.000265 -0.000739 0.084962
v -0.016450 0.084148 0.084430
v -0.018367 0.132374 0.104468
v -0.017231 0.132374 0.101886
v -0.014535 0.084148 0.080075
v -0.000389 0.132374 0.109295
v 0.013867 0.084148 0.092570
v -0.001525 0.132374 0.111878
v 0.011952 0.084148 0.096924
v -0.012530 0.132374 0.114046
v -0.004833 0.084148 0.096550
v -0.011394 0.132374 0.111464
v -0.002918 0.084148 0.092196
v 0.002577 -0.000739 0.117112
v 0.031962 0.245421 0.207832
v 0.004354 -0.000739 0.104448
v 0.085172 -0.000739 0.128698
v 0.086949 -0.000739 0.116034
v 0.044384 -0.000739 0.119273
v 0.042608 -0.000739 0.131937
v 0.019536 0.119924 0.137663
v 0.024650 0.188474 0.165815
v 0.025207 0.188474 0.161844
v 0.020475 0.119924 0.130966
v 0.051109 0.188474 0.165477
v 0.064153 0.119924 0.137093
v 0.050552 0.188474 0.169449
v 0.063214 0.119924 0.143789
v 0.036334 0.188474 0.176665
v 0.040108 0.119924 0.149759
v 0.036891 0.188474 0.172693
v 0.041047 0.119924 0.143062
v 0.144857 -0.000739 0.092579
v 0.270399 0.328922 0.069155
v 0.128343 -0.000739 0.088043
v 0.174449 -0.000739 -0.015124
v 0.157936 -0.000739 -0.019661
v 0.154918 -0.000739 0.037427
v 0.171431 -0.000739 0.041963
v 0.175068 0.160854 0.073591
v 0.213337 0.252658 0.071640
v 0.208159 0.252658 0.070218
v 0.166335 0.160854 0.071191
v 0.217439 0.252658 0.036442
v 0.181984 0.160854 0.014235
v 0.222617 0.252658 0.037865
v 0.190716 0.160854 0.016635
v 0.229756 0.252658 0.057989
v 0.194670 0.160854 0.048349
v 0.224577 0.252658 0.056566
v 0.185938 0.160854 0.045949
vt 0.875000 0.875000
vt 0.875000 0.875000
vt 0.875000 0.875000
vt 0.875000 0.875000
vt 0.875000 0.875000
vt 0.875000 0.875000
vt 0.875000 0.875000
vt 0.875000 0.875000
vt 0.875000 0.875000
vt 0.875000 0.875000
vt 0.875000 0.875000
vt 0.875000 0.875000
vt 0.875000 0.875000
vt 0.875000 0.875000
vt 0.375000 0.875000
vt 0.375000 0.875000
vt 0.375000 0.875000
vt 0.375000 0.875000
vt 0.375000 0.875000
vt 0.375000 0.875000
vt 0.375000 0.875000
vt 0.375000 0.875000
vt 0.375000 0.375000
vt 0.375000 0.375000
vt 0.375000 0.375000
vt 0.375000 0.375000
vt 0.375000 0.375000
vt 0.375000 0.375000
vt 0.375000 0.375000
vt 0.375000 0.375000
vt 0.375000 0.375000
vt 0.375000 0.375000
vt 0.375000 0.375000
vt 0.375000 0.375000
vt 0.375000 0.375000
vt 0.375000 0.375000
vt 0.375000 0.375000
vt 0.375000 0.375000
vt 0.375000 0.375000
vt 0.375000 0.375000
vt 0.375000 0.375000
vt 0.375000 0.375000
vt 0.375000 0.375000
vt 0.375000 0.375000
vt 0.375000 0.375000
vt 0.375000 0.375000
vt 0.375000 0.375000
vt 0.375000 0.375000
vt 0.375000 0.375000
vt 0.375000 0.375000
vt 0.375000 0.375000
vt 0.375000 0.375000
vt 0.375000 0.375000
vt 0.375000 0.375000
vt 0.375000 0.375000
vt 0.375000 0.375000
vt 0.375000 0.375000
vt 0.375000 0.375000
vt 0.375000 0.375000
vt 0.375000 0.375000
vt 0.375000 0.375000
vt 0.375000 0.375000
vt 0.375000 0.375000
vt 0.375000 0.375000
vt 0.375000 0.375000
vt 0.375000 0.375000
vt 0.375000 0.375000
vt 0.375000 0.375000
vt 0.375000 0.375000
vt 0.375000 0.375000
vt 0.375000 0.375000
vt 0.375000 0.375000
vt 0.375000 0.375000
vt 0.375000 0.375000
vt 0.375000 0.375000
vt 0.375000 0.375000
vt 0.375000 0.375000
vt 0.375000 0.375000
vt 0.375000 0.375000
vt 0.375000 0.375000
vt 0.375000 0.375000
vt 0.375000 0.375000
vt 0.375000 0.375000
vt 0.375000 0.375000
vt 0.375000 0.375000
vt 0.375000 0.375000
vt 0.375000 0.375000
vt 0.375000 0.375000
vt 0.375000 0.375000
vt 0.375000 0.375000
vt 0.375000 0.375000
vt 0.375000 0.375000
vt 0.375000 0.375000
vt 0.375000 0.375000
vt 0.375000 0.375000
vt 0.375000 0.375000
vt 0.375000 0.375000
vt 0.375000 0.375000
vt 0.375000 0.375000
vt 0.375000 0.375000
vt 0.375000 0.375000
vt 0.375000 0.375000
vt 0.375000 0.375000
vt 0.375000 0.375000
vt 0.375000 0.375000
vt 0.375000 0.375000
vt 0.375000 0.375000
vt 0.375000 0.375000
vt 0.375000 0.375000
vt 0.375000 0.375000
vt 0.375000 0.375000
vt 0.375000 0.375000
vt 0.375000 0.375000
vt 0.375000 0.375000
vt 0.375000 0.375000
vt 0.375000 0.375000
vt 0.375000 0.375000
vt 0.375000 0.375000
vt 0.375000 0.375000
vt 0.375000 0.375000
vt 0.375000 0.375000
vt 0.375000 0.375000
vt 0.375000 0.375000
vt 0.375000 0.375000
vt 0.375000 0.375000
vt 0.375000 0.375000
vt 0.375000 0.375000
vt 0.375000 0.375000
vt 0.375000 0.375000
vt 0.375000 0.375000
vt 0.375000 0.375000
vt 0.375000 0.375000
vt 0.375000 0.375000
vt 0.375000 0.375000
vt 0.375000 0.375000
vt 0.375000 0.375000
vt 0.375000 0.375000
vt 0.375000 0.375000
vt 0.375000 0.375000
vt 0.375000 0.375000
vt 0.375000 0.375000
vt 0.375000 0.375000
vt 0.375000 0.375000
vt 0.375000 0.375000
vt 0.375000 0.375000
vt 0.375000 0.375000
vt 0.375000 0.375000
vt 0.375000 0.375000
vt 0.375000 0.375000
vt 0.375000 0.375000
vt 0.375000 0.375000
vt 0.375000 0.375000
vt 0.375000 0.375000
vt 0.375000 0.375000
vt 0.375000 0.375000
vn 0.0000 0.0000 1.0000
vn -0.6644 0.7474 0.0000
vn 0.0000 -1.0000 0.0000
vn -0.0000 0.0000 -1.0000
vn -0.0001 1.0000 0.0000
vn 0.9982 -0.0605 0.0000
vn -0.6644 -0.7474 0.0000
vn 0.7071 0.7072 0.0000
vn 0.9979 0.0646 0.0000
vn 0.0000 1.0000 0.0000
vn -1.0000 0.0000 0.0000
vn 1.0000 0.0000 0.0000
vn -0.5454 0.2238 0.8077
vn -0.8903 0.4551 0.0135
vn 0.5454 0.2238 -0.8077
vn 0.3276 -0.4129 0.8498
vn 0.9107 -0.4129 -0.0138
vn -0.3202 0.4551 -0.8309
vn -0.6339 0.1666 -0.7553
vn -0.4498 0.3364 -0.8274
vn 0.9438 -0.1201 0.3078
vn 0.9457 -0.3061 0.1092
vn 0.6382 -0.1201 0.7604
vn 0.4547 -0.3061 0.8364
vn 0.5523 0.1607 -0.8180
vn 0.5549 0.1298 -0.8217
vn -0.9374 0.1666 -0.3057
vn -0.9355 0.3364 -0.1080
vn -0.5523 0.1607 0.8180
vn -0.5549 0.1298 0.8217
vn 0.9722 0.2238 -0.0690
vn 0.5598 0.4551 0.6925
vn -0.9722 0.2238 0.0689
vn 0.4669 -0.4129 -0.7820
vn -0.5726 -0.4129 -0.7083
vn -0.4564 0.4551 0.7646
vn -0.2035 0.1666 0.9648
vn -0.3738 0.3364 0.8644
vn -0.3399 -0.1201 -0.9327
vn -0.4974 -0.3061 -0.8117
vn 0.2049 -0.1201 -0.9714
vn 0.3778 -0.3061 -0.8738
vn -0.9845 0.1607 0.0698
vn -0.9891 0.1298 0.0701
vn 0.3376 0.1666 0.9264
vn 0.4920 0.3364 0.8030
vn 0.9845 0.1607 -0.0698
vn 0.9891 0.1298 -0.0701
vn 0.3891 0.2238 0.8936
vn -0.4663 0.4551 0.7586
vn -0.3890 0.2238 -0.8937
vn 0.8929 -0.4129 0.1795
vn 0.4770 -0.4129 -0.7759
vn -0.8730 0.4551 -0.1755
vn -0.9775 0.1666 0.1297
vn -0.9395 0.3364 -0.0643
vn 0.7661 -0.1201 -0.6314
vn 0.5995 -0.3061 -0.7395
vn 0.9841 -0.1201 -0.1306
vn 0.9498 -0.3061 0.0650
vn -0.3940 0.1607 -0.9050
vn -0.3957 0.1298 -0.9091
vn -0.7609 0.1666 0.6271
vn -0.5931 0.3364 0.7315
vn 0.3940 0.1607 0.9050
vn 0.3958 0.1298 0.9091
vn -0.3852 0.2238 -0.8953
vn 0.4696 0.4551 -0.7566
vn 0.3852 0.2238 0.8953
vn -0.8921 -0.4129 -0.1834
vn -0.4803 -0.4129 0.7739
vn 0.8722 0.4551 0.1792
vn 0.9780 0.1666 -0.1255
vn 0.9392 0.3364 0.0683
vn -0.7688 -0.1201 0.6281
vn -0.6027 -0.3061 0.7369
vn -0.9847 -0.1201 0.1264
vn -0.9495 -0.3061 -0.0691
vn 0.3901 0.1607 0.9066
vn 0.3919 0.1298 0.9108
vn 0.7636 0.1666 -0.6238
vn 0.5962 0.3364 -0.7290
vn -0.3901 0.1607 -0.9066
vn -0.3919 0.1298 -0.9108
vn -0.8921 0.2238 -0.3924
vn -0.1722 0.4551 -0.8737
vn 0.8921 0.2238 0.3925
vn -0.7777 -0.4129 0.4740
vn 0.1761 -0.4129 0.8936
vn 0.7604 0.4551 -0.4634
vn 0.6300 0.1666 -0.7585
vn 0.7338 0.3364 -0.5903
vn -0.1344 -0.1201 0.9836
vn 0.0614 -0.3061 0.9500
vn -0.6343 -0.1201 0.7637
vn -0.7418 -0.3061 0.5967
vn 0.9034 0.1607 0.3975
vn 0.9076 0.1298 0.3993
vn 0.1334 0.1666 -0.9769
vn -0.0607 0.3364 -0.9398
vn -0.9035 0.1607 -0.3974
vn -0.9076 0.1298 -0.3992
vn -0.9652 0.2238 -0.1354
vn -0.4030 0.4551 -0.7940
vn 0.9652 0.2238 0.1354
vn -0.6198 -0.4129 0.6674
vn 0.4122 -0.4129 0.8122
vn 0.6059 0.4551 -0.6525
vn 0.4003 0.1666 -0.9011
vn 0.5459 0.3364 -0.7674
vn 0.1379 -0.1201 0.9831
vn 0.3171 -0.3061 0.8976
vn -0.4030 -0.1201 0.9073
vn -0.5518 -0.3061 0.7757
vn 0.9774 0.1607 0.1371
vn 0.9819 0.1298 0.1377
vn -0.1369 0.1666 -0.9765
vn -0.3137 0.3364 -0.8879
vn -0.9774 0.1607 -0.1371
vn -0.9819 0.1298 -0.1377
vn -0.2582 0.2238 0.9398
vn -0.8392 0.4551 0.2977
vn 0.2583 0.2238 -0.9398
vn 0.5823 -0.4129 0.7003
vn 0.8584 -0.4129 -0.3045
vn -0.5693 0.4551 -0.6847
vn -0.8422 0.1666 -0.5127
vn -0.6909 0.3364 -0.6399
vn 0.9927 -0.1201 -0.0105
vn 0.9309 -0.3061 -0.1992
vn 0.8480 -0.1201 0.5162
vn 0.6985 -0.3061 0.6469
vn 0.2615 0.1607 -0.9517
vn 0.2627 0.1298 -0.9561
vn -0.9860 0.1666 0.0104
vn -0.9209 0.3364 0.1971
vn -0.2615 0.1607 0.9517
vn -0.2627 0.1298 0.9561
usemtl Light_Wood
s off
f 10/1/1 19/2/1 20/3/1 15/4/1 17/5/1
f 13/6/1 10/1/1 17/5/1 9/7/1
f 15/4/2 16/8/2 12/9/2 17/5/2
f 11/10/3 14/11/3 13/6/3 9/7/3
f 11/10/4 12/9/4 18/12/4 14/11/4
f 21/13/5 16/8/5 15/4/5 20/3/5
f 12/9/4 16/8/4 21/13/4 22/14/4 18/12/4
f 13/6/6 14/11/6 18/12/6 10/1/6
f 17/5/7 12/9/7 11/10/7 9/7/7
f 21/13/8 20/3/8 19/2/8 22/14/8
f 10/1/9 18/12/9 22/14/9 19/2/9
usemtl Dark_Wood
f 1/15/3 2/16/3 3/17/3 4/18/3
f 5/19/10 8/20/10 7/21/10 6/22/10
f 1/15/1 5/19/1 6/22/1 2/16/1
f 2/16/11 6/22/11 7/21/11 3/17/11
f 3/17/4 7/21/4 8/20/4 4/18/4
f 5/19/12 1/15/12 4/18/12 8/20/12
usemtl Herbs
f 31/23/13 24/24/13 32/25/13
f 40/26/14 24/24/14 34/27/14
f 34/27/15 24/24/15 36/28/15
f 38/29/16 24/24/16 31/23/16
f 36/28/17 24/24/17 38/29/17
f 32/25/18 24/24/18 40/26/18
f 25/30/19 33/31/19 41/32/19 28/33/19
f 33/31/20 32/25/20 40/26/20 41/32/20
f 26/34/21 37/35/21 39/36/21 29/37/21
f 37/35/22 36/28/22 38/29/22 39/36/22
f 29/37/23 39/36/23 30/38/23 23/39/23
f 39/36/24 38/29/24 31/23/24 30/38/24
f 27/40/25 35/41/25 37/35/25 26/34/25
f 35/41/26 34/27/26 36/28/26 37/35/26
f 28/33/27 41/32/27 35/41/27 27/40/27
f 41/32/28 40/26/28 34/27/28 35/41/28
f 23/39/29 30/38/29 33/31/29 25/30/29
f 30/38/30 31/23/30 32/25/30 33/31/30
f 50/42/31 43/43/31 51/44/31
f 59/45/32 43/43/32 53/46/32
f 53/46/33 43/43/33 55/47/33
f 57/48/34 43/43/34 50/42/34
f 55/47/35 43/43/35 57/48/35
f 51/44/36 43/43/36 59/45/36
f 44/49/37 52/50/37 60/51/37 47/52/37
f 52/50/38 51/44/38 59/45/38 60/51/38
f 45/53/39 56/54/39 58/55/39 48/56/39
f 56/54/40 55/47/40 57/48/40 58/55/40
f 48/56/41 58/55/41 49/57/41 42/58/41
f 58/55/42 57/48/42 50/42/42 49/57/42
f 46/59/43 54/60/43 56/54/43 45/53/43
f 54/60/44 53/46/44 55/47/44 56/54/44
f 47/52/45 60/51/45 54/60/45 46/59/45
f 60/51/46 59/45/46 53/46/46 54/60/46
f 42/58/47 49/57/47 52/50/47 44/49/47
f 49/57/48 50/42/48 51/44/48 52/50/48
f 69/61/49 62/62/49 70/63/49
f 78/64/50 62/62/50 72/65/50
f 72/65/51 62/62/51 74/66/51
f 76/67/52 62/62/52 69/61/52
f 74/66/53 62/62/53 76/67/53
f 70/63/54 62/62/54 78/64/54
f 63/68/55 71/69/55 79/70/55 66/71/55
f 71/69/56 70/63/56 78/64/56 79/70/56
f 64/72/57 75/73/57 77/74/57 67/75/57
f 75/73/58 74/66/58 76/67/58 77/74/58
f 67/75/59 77/74/59 68/76/59 61/77/59
f 77/74/60 76/67/60 69/61/60 68/76/60
f 65/78/61 73/79/61 75/73/61 64/72/61
f 73/79/62 72/65/62 74/66/62 75/73/62
f 66/71/63 79/70/63 73/79/63 65/78/63
f 79/70/64 78/64/64 72/65/64 73/79/64
f 61/77/65 68/76/65 71/69/65 63/68/65
f 68/76/66 69/61/66 70/63/66 71/69/66
f 88/80/67 81/81/67 89/82/67
f 97/83/68 81/81/68 91/84/68
f 91/84/69 81/81/69 93/85/69
f 95/86/70 81/81/70 88/80/70
f 93/85/71 81/81/71 95/86/71
f 89/82/72 81/81/72 97/83/72
f 82/87/73 90/88/73 98/89/73 85/90/73
f 90/88/74 89/82/74 97/83/74 98/89/74
f 83/91/75 94/92/75 96/93/75 86/94/75
f 94/92/76 93/85/76 95/86/76 96/93/76
f 86/94/77 96/93/77 87/95/77 80/96/77
f 96/93/78 95/86/78 88/80/78 87/95/78
f 84/97/79 92/98/79 94/92/79 83/91/79
f 92/98/80 91/84/80 93/85/80 94/92/80
f 85/90/81 98/89/81 92/98/81 84/97/81
f 98/89/82 97/83/82 91/84/82 92/98/82
f 80/96/83 87/95/83 90/88/83 82/87/83
f 87/95/84 88/80/84 89/82/84 90/88/84
f 107/99/85 100/100/85 108/101/85
f 116/102/86 100/100/86 110/103/86
f 110/103/87 100/100/87 112/104/87
f 114/105/88 100/100/88 107/99/88
f 112/104/89 100/100/89 114/105/89
f 108/101/90 100/100/90 116/102/90
f 101/106/91 109/107/91 117/108/91 104/109/91
f 109/107/92 108/101/92 116/102/92 117/108/92
f 102/110/93 113/111/93 115/112/93 105/113/93
f 113/111/94 112/104/94 114/105/94 115/112/94
f 105/113/95 115/112/95 106/114/95 99/115/95
f 115/112/96 114/105/96 107/99/96 106/114/96
f 103/116/97 111/117/97 113/111/97 102/110/97
f 111/117/98 110/103/98 112/104/98 113/111/98
f 104/109/99 117/108/99 111/117/99 103/116/99
f 117/108/100 116/102/100 110/103/100 111/117/100
f 99/115/101 106/114/101 109/107/101 101/106/101
f 106/114/102 107/99/102 108/101/102 109/107/102
f 126/118/103 119/119/103 127/120/103
f 135/121/104 119/119/104 129/122/104
f 129/122/105 119/119/105 131/123/105
f 133/124/106 119/119/106 126/118/106
f 131/123/107 119/119/107 133/124/107
f 127/120/108 119/119/108 135/121/108
f 120/125/109 128/126/109 136/127/109 123/128/109
f 128/126/110 127/120/110 135/121/110 136/127/110
f 121/129/111 132/130/111 134/131/111 124/132/111
f 132/130/112 131/123/112 133/124/112 134/131/112
f 124/132/113 134/131/113 125/133/113 118/134/113
f 134/131/114 133/124/114 126/118/114 125/133/114
f 122/135/115 130/136/115 132/130/115 121/129/115
f 130/136/116 129/122/116 131/123/116 132/130/116
f 123/128/117 136/127/117 130/136/117 122/135/117
f 136/127/118 135/121/118 129/122/118 130/136/118
f 118/134/119 125/133/119 128/126/119 120/125/119
f 125/133/120 126/118/120 127/120/120 128/126/120
f 145/137/121 138/138/121 146/139/121
f 154/140/122 138/138/122 148/141/122
f 148/141/123 138/138/123 150/142/123
f 152/143/124 138/138/124 145/137/124
f 150/142/125 138/138/125 152/143/125
f 146/139/126 138/138/126 154/140/126
f 139/144/127 147/145/127 155/146/127 142/147/127
f 147/145/128 146/139/128 154/140/128 155/146/128
f 140/148/129 151/149/129 153/150/129 143/151/129
f 151/149/130 150/142/130 152/143/130 153/150/130
f 143/151/131 153/150/131 144/152/131 137/153/131
f 153/150/132 152/143/132 145/137/132 144/152/132
f 141/154/133 149/155/133 151/149/133 140/148/133
f 149/155/134 148/141/134 150/142/134 151/149/134
f 142/147/135 155/146/135 149/155/135 141/154/135
f 155/146/136 154/140/136 148/141/136 149/155/136
f 137/153/137 144/152/137 147/145/137 139/144/137
f 144/152/138 145/137/138 146/139/138 147/145/138
