# Blender v2.83.5 OBJ File: 'Lowpoly Wooden Signs.blend'
# www.blender.org
mtllib Sign11.mtl
o Sign11
v -0.057060 0.000000 -0.035495
v -0.054668 0.329661 0.092191
v -0.049860 0.000000 -0.051034
v 0.044287 0.000000 0.011460
v 0.051486 0.000000 -0.004079
v -0.004322 0.000000 -0.016473
v -0.011521 0.000000 -0.000935
v -0.043315 0.161593 -0.002566
v -0.047705 0.253397 0.035501
v -0.045447 0.253397 0.030629
v -0.039508 0.161593 -0.010783
v -0.013665 0.253397 0.045354
v 0.014086 0.161593 0.014048
v -0.015923 0.253397 0.050226
v 0.010279 0.161593 0.022265
v -0.036949 0.253397 0.053947
v -0.021653 0.161593 0.020933
v -0.034691 0.253397 0.049074
v -0.017846 0.161593 0.012716
v 0.139651 0.000000 -0.007134
v 0.254501 0.329661 -0.062982
v 0.122526 0.000000 -0.007134
v 0.139651 0.000000 -0.118830
v 0.122526 0.000000 -0.118830
v 0.134741 0.000000 -0.062982
v 0.151866 0.000000 -0.062982
v 0.163751 0.161593 -0.033449
v 0.200137 0.253397 -0.045468
v 0.194766 0.253397 -0.045468
v 0.154695 0.161593 -0.033449
v 0.194766 0.253397 -0.080496
v 0.154695 0.161593 -0.092515
v 0.200137 0.253397 -0.080496
v 0.163751 0.161593 -0.092515
v 0.212352 0.253397 -0.062982
v 0.175966 0.161593 -0.062982
v 0.206981 0.253397 -0.062982
v 0.166910 0.161593 -0.062982
v 0.079323 0.000780 -0.135421
v 0.045087 0.202873 -0.205827
v 0.079323 0.000780 -0.124922
v 0.010850 0.000780 -0.135421
v 0.010850 0.000780 -0.124922
v 0.045087 0.000780 -0.132411
v 0.045087 0.000780 -0.142909
v 0.063191 0.099842 -0.150195
v 0.055823 0.156121 -0.172501
v 0.055823 0.156121 -0.169208
v 0.063191 0.099842 -0.144643
v 0.034350 0.156121 -0.169208
v 0.026982 0.099842 -0.144643
v 0.034350 0.156121 -0.172501
v 0.026982 0.099842 -0.150195
v 0.045087 0.156121 -0.179989
v 0.045087 0.099842 -0.157683
v 0.045087 0.156121 -0.176696
v 0.045087 0.099842 -0.152132
v 0.059949 -0.000353 -0.284191
v -0.060200 0.378415 -0.368421
v 0.069499 -0.000353 -0.266988
v -0.052255 -0.000353 -0.221904
v -0.042705 -0.000353 -0.204701
v 0.006585 -0.000353 -0.248115
v -0.002965 -0.000353 -0.265318
v 0.020075 0.185311 -0.293727
v -0.012290 0.290790 -0.323576
v -0.009295 0.290790 -0.318181
v 0.025125 0.185311 -0.284630
v -0.044482 0.290790 -0.298647
v -0.034211 0.185311 -0.251691
v -0.047477 0.290790 -0.304042
v -0.039261 0.185311 -0.260788
v -0.036695 0.290790 -0.326080
v -0.016405 0.185311 -0.289528
v -0.033701 0.290790 -0.320685
v -0.011355 0.185311 -0.280431
v 0.059159 -0.000353 0.066610
v 0.179258 0.378415 0.150910
v 0.049619 -0.000353 0.049401
v 0.171399 -0.000353 0.004389
v 0.161860 -0.000353 -0.012820
v 0.112544 -0.000353 0.030565
v 0.122084 -0.000353 0.047774
v 0.099027 0.185311 0.076170
v 0.131375 0.290790 0.106037
v 0.128383 0.290790 0.100640
v 0.093982 0.185311 0.067069
v 0.163581 0.290790 0.081128
v 0.153338 0.185311 0.034165
v 0.166573 0.290790 0.086524
v 0.158382 0.185311 0.043266
v 0.155778 0.290790 0.108555
v 0.135509 0.185311 0.071992
v 0.152787 0.290790 0.103159
v 0.130464 0.185311 0.062892
v 0.150160 -0.002288 -0.165483
v 0.174370 0.231196 -0.252633
v 0.142130 -0.002288 -0.156393
v 0.090872 -0.002288 -0.217858
v 0.082842 -0.002288 -0.208768
v 0.118213 -0.002288 -0.189064
v 0.126244 -0.002288 -0.198154
v 0.147493 0.112161 -0.190615
v 0.158175 0.177182 -0.215564
v 0.155656 0.177182 -0.212713
v 0.143247 0.112161 -0.185808
v 0.137064 0.177182 -0.229138
v 0.111894 0.112161 -0.213504
v 0.139582 0.177182 -0.231989
v 0.116140 0.112161 -0.218311
v 0.154606 0.177182 -0.230260
v 0.137544 0.112161 -0.210947
v 0.152088 0.177182 -0.227409
v 0.133298 0.112161 -0.206140
v 0.138736 0.000739 -0.033591
v -0.020858 0.000739 -0.033591
v -0.020858 0.000739 -0.063998
v 0.138736 0.000739 -0.063997
v 0.138736 1.982556 -0.033590
v -0.020858 1.982556 -0.033593
v -0.020858 1.982556 -0.063998
v 0.138736 1.982556 -0.063998
v -0.649714 1.326237 -0.031986
v -0.649714 1.638419 -0.004682
v 0.735898 1.326237 -0.031986
v 0.756541 2.137418 -0.031986
v -0.649714 1.326237 -0.004682
v -0.669162 1.482328 -0.004682
v 0.735898 1.326237 -0.004682
v 0.756541 2.137418 -0.004682
v -0.649714 2.106690 -0.031986
v -0.618986 2.137418 -0.031986
v -0.618986 2.137418 -0.004682
v -0.649714 2.106690 -0.004682
v -0.660610 1.794509 -0.004682
v -0.637757 1.950600 -0.004682
v -0.637757 1.950600 -0.031986
v -0.660610 1.794509 -0.031986
v -0.649714 1.638419 -0.031986
v -0.669162 1.482328 -0.031986
v 0.770038 2.002221 -0.031986
v 0.769621 1.867025 -0.031986
v 0.756541 1.731828 -0.031986
v 0.748482 1.596631 -0.031986
v 0.756541 1.461434 -0.031986
v 0.770038 2.002221 -0.004682
v 0.769621 1.867025 -0.004682
v 0.756541 1.731828 -0.004682
v 0.748482 1.596631 -0.004682
v 0.756541 1.461434 -0.004682
v -0.275104 2.143454 -0.031986
v 0.068778 2.137418 -0.031986
v 0.412659 2.150444 -0.031986
v -0.275104 2.143454 -0.004682
v 0.068778 2.137418 -0.004682
v 0.412659 2.150444 -0.004682
v 0.475290 1.309136 -0.031986
v 0.194039 1.326237 -0.031986
v -0.087212 1.316696 -0.031986
v -0.368463 1.326237 -0.031986
v -0.368463 1.326237 -0.004682
v -0.087212 1.316696 -0.004682
v 0.194039 1.326237 -0.004682
v 0.475290 1.309136 -0.004682
v -0.278201 0.136664 0.069130
v -0.364752 0.010779 -0.196231
v -0.310208 0.174075 -0.105649
v -0.062523 0.010779 0.105998
v -0.346626 0.099270 0.083544
v -0.062523 0.010779 -0.196231
v -0.196695 0.171747 -0.111422
v -0.150615 0.141954 0.072796
v -0.278412 0.191178 0.031881
v -0.371871 0.099270 -0.171619
v -0.110371 0.108665 -0.154269
v -0.122651 0.054056 0.111332
v -0.337899 0.154479 -0.115964
v -0.326562 0.171278 0.012688
v -0.364752 0.010779 0.164012
vt 0.375000 0.375000
vt 0.375000 0.375000
vt 0.375000 0.375000
vt 0.375000 0.375000
vt 0.375000 0.375000
vt 0.375000 0.375000
vt 0.375000 0.375000
vt 0.375000 0.375000
vt 0.375000 0.375000
vt 0.375000 0.375000
vt 0.375000 0.375000
vt 0.375000 0.375000
vt 0.375000 0.375000
vt 0.375000 0.375000
vt 0.375000 0.375000
vt 0.375000 0.375000
vt 0.375000 0.375000
vt 0.375000 0.375000
vt 0.375000 0.375000
vt 0.375000 0.375000
vt 0.375000 0.375000
vt 0.375000 0.375000
vt 0.375000 0.375000
vt 0.375000 0.375000
vt 0.375000 0.375000
vt 0.375000 0.375000
vt 0.375000 0.375000
vt 0.375000 0.375000
vt 0.375000 0.375000
vt 0.375000 0.375000
vt 0.375000 0.375000
vt 0.375000 0.375000
vt 0.375000 0.375000
vt 0.375000 0.375000
vt 0.375000 0.375000
vt 0.375000 0.375000
vt 0.375000 0.375000
vt 0.375000 0.375000
vt 0.375000 0.375000
vt 0.375000 0.375000
vt 0.375000 0.375000
vt 0.375000 0.375000
vt 0.375000 0.375000
vt 0.375000 0.375000
vt 0.375000 0.375000
vt 0.375000 0.375000
vt 0.375000 0.375000
vt 0.375000 0.375000
vt 0.375000 0.375000
vt 0.375000 0.375000
vt 0.375000 0.375000
vt 0.375000 0.375000
vt 0.375000 0.375000
vt 0.375000 0.375000
vt 0.375000 0.375000
vt 0.375000 0.375000
vt 0.375000 0.375000
vt 0.375000 0.375000
vt 0.375000 0.375000
vt 0.375000 0.375000
vt 0.375000 0.375000
vt 0.375000 0.375000
vt 0.375000 0.375000
vt 0.375000 0.375000
vt 0.375000 0.375000
vt 0.375000 0.375000
vt 0.375000 0.375000
vt 0.375000 0.375000
vt 0.375000 0.375000
vt 0.375000 0.375000
vt 0.375000 0.375000
vt 0.375000 0.375000
vt 0.375000 0.375000
vt 0.375000 0.375000
vt 0.375000 0.375000
vt 0.375000 0.375000
vt 0.375000 0.375000
vt 0.375000 0.375000
vt 0.375000 0.375000
vt 0.375000 0.375000
vt 0.375000 0.375000
vt 0.375000 0.375000
vt 0.375000 0.375000
vt 0.375000 0.375000
vt 0.375000 0.375000
vt 0.375000 0.375000
vt 0.375000 0.375000
vt 0.375000 0.375000
vt 0.375000 0.375000
vt 0.375000 0.375000
vt 0.375000 0.375000
vt 0.375000 0.375000
vt 0.375000 0.375000
vt 0.375000 0.375000
vt 0.375000 0.375000
vt 0.375000 0.375000
vt 0.375000 0.375000
vt 0.375000 0.375000
vt 0.375000 0.375000
vt 0.375000 0.375000
vt 0.375000 0.375000
vt 0.375000 0.375000
vt 0.375000 0.375000
vt 0.375000 0.375000
vt 0.375000 0.375000
vt 0.375000 0.375000
vt 0.375000 0.375000
vt 0.375000 0.375000
vt 0.375000 0.375000
vt 0.375000 0.375000
vt 0.375000 0.375000
vt 0.375000 0.375000
vt 0.375000 0.375000
vt 0.375000 0.375000
vt 0.875000 0.875000
vt 0.875000 0.875000
vt 0.875000 0.875000
vt 0.875000 0.875000
vt 0.875000 0.875000
vt 0.875000 0.875000
vt 0.875000 0.875000
vt 0.875000 0.875000
vt 0.875000 0.875000
vt 0.875000 0.875000
vt 0.875000 0.875000
vt 0.875000 0.875000
vt 0.875000 0.875000
vt 0.875000 0.875000
vt 0.875000 0.875000
vt 0.875000 0.875000
vt 0.875000 0.875000
vt 0.875000 0.875000
vt 0.875000 0.875000
vt 0.875000 0.875000
vt 0.875000 0.875000
vt 0.875000 0.875000
vt 0.875000 0.875000
vt 0.875000 0.875000
vt 0.875000 0.875000
vt 0.875000 0.875000
vt 0.875000 0.875000
vt 0.875000 0.875000
vt 0.875000 0.875000
vt 0.875000 0.875000
vt 0.875000 0.875000
vt 0.875000 0.875000
vt 0.875000 0.875000
vt 0.875000 0.875000
vt 0.875000 0.875000
vt 0.875000 0.875000
vt 0.875000 0.875000
vt 0.875000 0.875000
vt 0.875000 0.875000
vt 0.875000 0.875000
vt 0.875000 0.875000
vt 0.875000 0.875000
vt 0.375000 0.875000
vt 0.375000 0.875000
vt 0.375000 0.875000
vt 0.375000 0.875000
vt 0.375000 0.875000
vt 0.375000 0.875000
vt 0.375000 0.875000
vt 0.375000 0.875000
vt 0.875000 0.375000
vt 0.875000 0.375000
vt 0.875000 0.375000
vt 0.875000 0.375000
vt 0.875000 0.375000
vt 0.875000 0.375000
vt 0.875000 0.375000
vt 0.875000 0.375000
vt 0.875000 0.375000
vt 0.875000 0.375000
vt 0.875000 0.375000
vt 0.875000 0.375000
vt 0.875000 0.375000
vt 0.875000 0.375000
vt 0.875000 0.375000
vn -0.8843 0.2238 -0.4097
vn -0.1552 0.4551 -0.8768
vn 0.8843 0.2238 0.4097
vn -0.7868 -0.4129 0.4588
vn 0.1587 -0.4129 0.8969
vn 0.7692 0.4551 -0.4485
vn 0.6446 0.1666 -0.7461
vn 0.7451 0.3364 -0.5759
vn -0.1534 -0.1201 0.9808
vn 0.0429 -0.3061 0.9510
vn -0.6490 -0.1201 0.7512
vn -0.7532 -0.3061 0.5822
vn 0.8955 0.1607 0.4149
vn 0.8997 0.1298 0.4168
vn 0.1524 0.1666 -0.9742
vn -0.0424 0.3364 -0.9408
vn -0.8955 0.1607 -0.4149
vn -0.8997 0.1298 -0.4168
vn 0.0000 0.2238 0.9746
vn -0.7304 0.4551 0.5094
vn 0.0000 0.2238 -0.9746
vn 0.7470 -0.4129 0.5210
vn 0.7470 -0.4129 -0.5210
vn -0.7304 0.4551 -0.5094
vn -0.9480 0.1666 -0.2712
vn -0.8358 0.3364 -0.4340
vn 0.9545 -0.1201 -0.2731
vn 0.8449 -0.3061 -0.4387
vn 0.9545 -0.1201 0.2731
vn 0.8449 -0.3061 0.4387
vn 0.0000 0.1607 -0.9870
vn 0.0000 0.1298 -0.9915
vn -0.9480 0.1666 0.2712
vn -0.8358 0.3364 0.4340
vn 0.0000 0.1607 0.9870
vn 0.0000 0.1298 0.9915
vn 0.9746 0.2238 0.0000
vn 0.5094 0.4551 0.7304
vn -0.9746 0.2238 0.0000
vn 0.5210 -0.4129 -0.7470
vn -0.5210 -0.4129 -0.7470
vn -0.5094 0.4551 0.7304
vn -0.2712 0.1666 0.9480
vn -0.4340 0.3364 0.8358
vn -0.2731 -0.1201 -0.9545
vn -0.4387 -0.3061 -0.8449
vn 0.2731 -0.1201 -0.9545
vn 0.4387 -0.3061 -0.8449
vn -0.9870 0.1607 0.0000
vn -0.9915 0.1298 0.0000
vn 0.2712 0.1666 0.9480
vn 0.4340 0.3364 0.8358
vn 0.9870 0.1607 -0.0000
vn 0.9915 0.1298 -0.0000
vn 0.8521 0.2238 -0.4730
vn 0.7999 0.4551 0.3913
vn -0.8521 0.2238 0.4730
vn 0.0930 -0.4129 -0.9060
vn -0.8181 -0.4129 -0.4003
vn -0.0909 0.4551 0.8858
vn 0.2230 0.1666 0.9605
vn 0.0262 0.3364 0.9414
vn -0.7020 -0.1201 -0.7019
vn -0.7936 -0.3061 -0.5258
vn -0.2245 -0.1201 -0.9670
vn -0.0265 -0.3061 -0.9516
vn -0.8629 0.1607 0.4790
vn -0.8669 0.1298 0.4813
vn 0.6973 0.1666 0.6972
vn 0.7851 0.3364 0.5201
vn 0.8629 0.1607 -0.4790
vn 0.8669 0.1298 -0.4812
vn -0.8524 0.2238 0.4725
vn -0.7996 0.4551 -0.3918
vn 0.8524 0.2238 -0.4725
vn -0.0935 -0.4129 0.9060
vn 0.8179 -0.4129 0.4007
vn 0.0914 0.4551 -0.8857
vn -0.2224 0.1666 -0.9606
vn -0.0257 0.3364 -0.9414
vn 0.7016 -0.1201 0.7024
vn 0.7933 -0.3061 0.5262
vn 0.2239 -0.1201 0.9672
vn 0.0259 -0.3061 0.9516
vn 0.8632 0.1607 -0.4785
vn 0.8672 0.1298 -0.4807
vn -0.6968 0.1666 -0.6976
vn -0.7848 0.3364 -0.5205
vn -0.8632 0.1607 0.4785
vn -0.8672 0.1298 0.4807
vn 0.7304 0.2238 0.6453
vn -0.1018 0.4551 0.8846
vn -0.7304 0.2238 -0.6453
vn 0.8851 -0.4129 -0.2149
vn 0.1041 -0.4129 -0.9048
vn -0.8653 0.4551 0.2101
vn -0.8309 0.1666 0.5309
vn -0.8786 0.3364 0.3390
vn 0.4272 -0.1201 -0.8961
vn 0.2306 -0.3061 -0.9236
vn 0.8366 -0.1201 -0.5345
vn 0.8882 -0.3061 -0.3427
vn -0.7397 0.1607 -0.6535
vn -0.7431 0.1298 -0.6565
vn -0.4243 0.1666 0.8900
vn -0.2281 0.3364 0.9137
vn 0.7397 0.1607 0.6535
vn 0.7431 0.1298 0.6565
vn -0.0175 0.9998 0.0000
vn 0.9951 0.0993 0.0000
vn -0.9923 -0.1236 0.0000
vn 0.0000 0.0000 -1.0000
vn 0.0000 -1.0000 0.0000
vn -0.0000 0.0000 1.0000
vn -0.7071 0.7071 0.0000
vn -0.9971 -0.0764 0.0000
vn -0.9923 0.1236 0.0000
vn -0.9976 -0.0696 0.0000
vn -0.9895 0.1449 0.0000
vn 0.9885 -0.1509 0.0000
vn 0.9982 0.0595 0.0000
vn 0.9982 -0.0595 0.0000
vn 0.9954 -0.0963 0.0000
vn 1.0000 -0.0031 0.0000
vn 0.0379 0.9993 0.0000
vn -0.0379 0.9993 0.0000
vn 0.0175 0.9998 0.0000
vn 0.0655 -0.9979 -0.0000
vn -0.0607 -0.9982 -0.0000
vn 0.0339 -0.9994 0.0000
vn -0.0339 -0.9994 -0.0000
vn 0.0000 1.0000 -0.0000
vn -1.0000 -0.0000 -0.0000
vn 1.0000 0.0000 0.0000
vn -0.7950 0.5234 0.3068
vn 0.0322 0.5914 -0.8058
vn 0.6377 0.7482 0.1833
vn -0.0308 0.4081 0.9124
vn 0.3400 0.9381 0.0667
vn -0.4900 0.4905 0.7206
vn 0.0139 0.9919 -0.1266
vn -0.0471 0.5634 0.8248
vn 0.1867 0.1395 0.9725
vn 0.8039 0.5901 0.0741
vn 0.0232 0.3424 -0.9393
vn -0.9964 0.0749 0.0409
vn -0.5622 0.8250 -0.0582
vn -0.0426 0.3898 0.9199
vn 0.9552 0.2143 -0.2043
vn 0.0425 0.6674 0.7435
vn -0.8854 0.4565 0.0876
vn -0.0609 0.6880 -0.7232
vn -0.3718 0.9279 -0.0294
usemtl Herbs
s off
f 9/1/1 2/2/1 10/3/1
f 18/4/2 2/2/2 12/5/2
f 12/5/3 2/2/3 14/6/3
f 16/7/4 2/2/4 9/1/4
f 14/6/5 2/2/5 16/7/5
f 10/3/6 2/2/6 18/4/6
f 3/8/7 11/9/7 19/10/7 6/11/7
f 11/9/8 10/3/8 18/4/8 19/10/8
f 4/12/9 15/13/9 17/14/9 7/15/9
f 15/13/10 14/6/10 16/7/10 17/14/10
f 7/15/11 17/14/11 8/16/11 1/17/11
f 17/14/12 16/7/12 9/1/12 8/16/12
f 5/18/13 13/19/13 15/13/13 4/12/13
f 13/19/14 12/5/14 14/6/14 15/13/14
f 6/11/15 19/10/15 13/19/15 5/18/15
f 19/10/16 18/4/16 12/5/16 13/19/16
f 1/17/17 8/16/17 11/9/17 3/8/17
f 8/16/18 9/1/18 10/3/18 11/9/18
f 28/20/19 21/21/19 29/22/19
f 37/23/20 21/21/20 31/24/20
f 31/24/21 21/21/21 33/25/21
f 35/26/22 21/21/22 28/20/22
f 33/25/23 21/21/23 35/26/23
f 29/22/24 21/21/24 37/23/24
f 22/27/25 30/28/25 38/29/25 25/30/25
f 30/28/26 29/22/26 37/23/26 38/29/26
f 23/31/27 34/32/27 36/33/27 26/34/27
f 34/32/28 33/25/28 35/26/28 36/33/28
f 26/34/29 36/33/29 27/35/29 20/36/29
f 36/33/30 35/26/30 28/20/30 27/35/30
f 24/37/31 32/38/31 34/32/31 23/31/31
f 32/38/32 31/24/32 33/25/32 34/32/32
f 25/30/33 38/29/33 32/38/33 24/37/33
f 38/29/34 37/23/34 31/24/34 32/38/34
f 20/36/35 27/35/35 30/28/35 22/27/35
f 27/35/36 28/20/36 29/22/36 30/28/36
f 47/39/37 40/40/37 48/41/37
f 56/42/38 40/40/38 50/43/38
f 50/43/39 40/40/39 52/44/39
f 54/45/40 40/40/40 47/39/40
f 52/44/41 40/40/41 54/45/41
f 48/41/42 40/40/42 56/42/42
f 41/46/43 49/47/43 57/48/43 44/49/43
f 49/47/44 48/41/44 56/42/44 57/48/44
f 42/50/45 53/51/45 55/52/45 45/53/45
f 53/51/46 52/44/46 54/45/46 55/52/46
f 45/53/47 55/52/47 46/54/47 39/55/47
f 55/52/48 54/45/48 47/39/48 46/54/48
f 43/56/49 51/57/49 53/51/49 42/50/49
f 51/57/50 50/43/50 52/44/50 53/51/50
f 44/49/51 57/48/51 51/57/51 43/56/51
f 57/48/52 56/42/52 50/43/52 51/57/52
f 39/55/53 46/54/53 49/47/53 41/46/53
f 46/54/54 47/39/54 48/41/54 49/47/54
f 66/58/55 59/59/55 67/60/55
f 75/61/56 59/59/56 69/62/56
f 69/62/57 59/59/57 71/63/57
f 73/64/58 59/59/58 66/58/58
f 71/63/59 59/59/59 73/64/59
f 67/60/60 59/59/60 75/61/60
f 60/65/61 68/66/61 76/67/61 63/68/61
f 68/66/62 67/60/62 75/61/62 76/67/62
f 61/69/63 72/70/63 74/71/63 64/72/63
f 72/70/64 71/63/64 73/64/64 74/71/64
f 64/72/65 74/71/65 65/73/65 58/74/65
f 74/71/66 73/64/66 66/58/66 65/73/66
f 62/75/67 70/76/67 72/70/67 61/69/67
f 70/76/68 69/62/68 71/63/68 72/70/68
f 63/68/69 76/67/69 70/76/69 62/75/69
f 76/67/70 75/61/70 69/62/70 70/76/70
f 58/74/71 65/73/71 68/66/71 60/65/71
f 65/73/72 66/58/72 67/60/72 68/66/72
f 85/77/73 78/78/73 86/79/73
f 94/80/74 78/78/74 88/81/74
f 88/81/75 78/78/75 90/82/75
f 92/83/76 78/78/76 85/77/76
f 90/82/77 78/78/77 92/83/77
f 86/79/78 78/78/78 94/80/78
f 79/84/79 87/85/79 95/86/79 82/87/79
f 87/85/80 86/79/80 94/80/80 95/86/80
f 80/88/81 91/89/81 93/90/81 83/91/81
f 91/89/82 90/82/82 92/83/82 93/90/82
f 83/91/83 93/90/83 84/92/83 77/93/83
f 93/90/84 92/83/84 85/77/84 84/92/84
f 81/94/85 89/95/85 91/89/85 80/88/85
f 89/95/86 88/81/86 90/82/86 91/89/86
f 82/87/87 95/86/87 89/95/87 81/94/87
f 95/86/88 94/80/88 88/81/88 89/95/88
f 77/93/89 84/92/89 87/85/89 79/84/89
f 84/92/90 85/77/90 86/79/90 87/85/90
f 104/96/91 97/97/91 105/98/91
f 113/99/92 97/97/92 107/100/92
f 107/100/93 97/97/93 109/101/93
f 111/102/94 97/97/94 104/96/94
f 109/101/95 97/97/95 111/102/95
f 105/98/96 97/97/96 113/99/96
f 98/103/97 106/104/97 114/105/97 101/106/97
f 106/104/98 105/98/98 113/99/98 114/105/98
f 99/107/99 110/108/99 112/109/99 102/110/99
f 110/108/100 109/101/100 111/102/100 112/109/100
f 102/110/101 112/109/101 103/111/101 96/112/101
f 112/109/102 111/102/102 104/96/102 103/111/102
f 100/113/103 108/114/103 110/108/103 99/107/103
f 108/114/104 107/100/104 109/101/104 110/108/104
f 101/106/105 114/105/105 108/114/105 100/113/105
f 114/105/106 113/99/106 107/100/106 108/114/106
f 96/112/107 103/111/107 106/104/107 98/103/107
f 103/111/108 104/96/108 105/98/108 106/104/108
usemtl Light_Wood
f 154/115/109 151/116/109 132/117/109 133/118/109
f 141/119/110 126/120/110 130/121/110 146/122/110
f 127/123/111 128/124/111 140/125/111 123/126/111
f 123/126/112 140/125/112 139/127/112 138/128/112 137/129/112 131/130/112 132/117/112 151/116/112 152/131/112 153/132/112 126/120/112 141/119/112 142/133/112 143/134/112 144/135/112 145/136/112 125/137/112 157/138/112 158/139/112 159/140/112 160/141/112
f 160/141/113 161/142/113 127/123/113 123/126/113
f 129/143/114 150/144/114 149/145/114 148/146/114 147/147/114 146/122/114 130/121/114 156/148/114 155/149/114 154/115/114 133/118/114 134/150/114 136/151/114 135/152/114 124/153/114 128/124/114 127/123/114 161/142/114 162/154/114 163/155/114 164/156/114
f 133/118/115 132/117/115 131/130/115 134/150/115
f 136/151/116 134/150/116 131/130/116 137/129/116
f 128/124/117 124/153/117 139/127/117 140/125/117
f 124/153/118 135/152/118 138/128/118 139/127/118
f 135/152/119 136/151/119 137/129/119 138/128/119
f 125/137/120 145/136/120 150/144/120 129/143/120
f 145/136/121 144/135/121 149/145/121 150/144/121
f 144/135/122 143/134/122 148/146/122 149/145/122
f 143/134/123 142/133/123 147/147/123 148/146/123
f 142/133/124 141/119/124 146/122/124 147/147/124
f 130/121/125 126/120/125 153/132/125 156/148/125
f 156/148/126 153/132/126 152/131/126 155/149/126
f 155/149/127 152/131/127 151/116/127 154/115/127
f 125/137/128 129/143/128 164/156/128 157/138/128
f 157/138/129 164/156/129 163/155/129 158/139/129
f 158/139/130 163/155/130 162/154/130 159/140/130
f 159/140/131 162/154/131 161/142/131 160/141/131
usemtl Dark_Wood
f 115/157/113 116/158/113 117/159/113 118/160/113
f 119/161/132 122/162/132 121/163/132 120/164/132
f 115/157/114 119/161/114 120/164/114 116/158/114
f 116/158/133 120/164/133 121/163/133 117/159/133
f 117/159/112 121/163/112 122/162/112 118/160/112
f 119/161/134 115/157/134 118/160/134 122/162/134
usemtl Rocks
f 169/165/135 165/166/135 178/167/135 177/168/135
f 174/169/136 171/170/136 175/171/136
f 175/171/137 171/170/137 176/172/137
f 176/172/138 165/166/138 169/165/138
f 166/173/113 170/174/113 168/175/113 179/176/113
f 171/170/139 173/177/139 172/178/139
f 165/166/140 173/177/140 178/167/140
f 167/179/141 173/177/141 171/170/141
f 172/178/142 173/177/142 165/166/142
f 168/175/143 176/172/143 179/176/143
f 170/174/144 175/171/144 176/172/144 168/175/144
f 166/173/145 174/169/145 175/171/145 170/174/145
f 179/176/146 169/165/146 174/169/146 166/173/146
f 177/168/147 178/167/147 167/179/147
f 165/166/148 176/172/148 172/178/148
f 176/172/149 171/170/149 172/178/149
f 179/176/150 176/172/150 169/165/150
f 177/168/151 174/169/151 169/165/151
f 171/170/152 174/169/152 177/168/152 167/179/152
f 178/167/153 173/177/153 167/179/153
